<?xml version="1.0" standalone="no"?>
<!DOCTYPE svg PUBLIC "-//W3C//DTD SVG 20010904//EN"
 "http://www.w3.org/TR/2001/REC-SVG-20010904/DTD/svg10.dtd">
<svg version="1.0" xmlns="http://www.w3.org/2000/svg"
 width="647.000000pt" height="185.000000pt" viewBox="0 0 647.000000 185.000000"
 preserveAspectRatio="xMidYMid meet">

<g transform="translate(0.000000,185.000000) scale(0.100000,-0.100000)"
fill="#000000" stroke="none">
<path d="M2565 1726 c-23 -34 -18 -1673 5 -1700 13 -17 15 -17 32 4 17 21 18
69 18 844 0 451 -3 831 -6 843 -9 32 -32 36 -49 9z"/>
<path d="M4933 1700 c-12 -5 -29 -23 -38 -40 -34 -65 11 -130 89 -130 44 1 66
13 84 47 20 37 14 73 -17 104 -31 30 -73 37 -118 19z"/>
<path d="M5930 1595 l0 -55 79 0 79 0 3 -237 c4 -230 5 -240 29 -287 37 -73
66 -90 159 -94 88 -4 166 12 158 33 -3 7 -11 31 -17 52 l-12 40 -43 -10 c-53
-12 -97 3 -114 39 -7 17 -11 117 -11 299 l0 275 -155 0 -155 0 0 -55z"/>
<path d="M2820 1266 l0 -336 128 0 c155 0 211 14 274 70 66 58 91 121 96 247
5 126 -13 193 -69 257 -66 74 -110 89 -281 94 l-148 4 0 -336z m270 195 c56
-30 80 -87 80 -190 0 -97 -23 -159 -71 -194 -28 -20 -115 -41 -130 -31 -5 3
-9 102 -9 220 l0 214 48 0 c27 0 62 -8 82 -19z"/>
<path d="M344 1455 c-11 -8 -14 -107 -14 -532 l-1 -522 -102 -3 -102 -3 0 -38
c-1 -22 5 -43 14 -50 19 -16 2184 -18 2200 -2 6 6 13 29 15 53 l6 42 -105 0
-105 0 0 518 c0 284 -4 523 -8 529 -10 17 -1777 24 -1798 8z m911 -26 c0 -7
-8 -15 -17 -17 -18 -3 -25 18 -11 32 10 10 28 1 28 -15z m835 -499 l0 -460
-850 0 -850 0 0 460 0 460 850 0 850 0 0 -460z m-724 -571 c3 -6 2 -15 -2 -19
-11 -11 -240 -18 -249 -8 -4 4 -5 14 -2 23 5 12 27 15 126 15 76 0 122 -4 127
-11z"/>
<path d="M1221 938 c-34 -117 -65 -221 -67 -231 -5 -15 -1 -18 22 -15 26 3 30
9 50 78 12 41 42 144 67 228 l45 152 -27 0 c-27 0 -29 -3 -90 -212z"/>
<path d="M940 982 c-130 -61 -145 -71 -148 -95 -3 -24 2 -30 40 -46 24 -10 92
-42 151 -70 l108 -51 -3 31 c-3 29 -9 34 -113 78 -61 25 -113 50 -115 54 -3 5
48 31 113 59 110 48 117 53 117 80 0 15 -1 28 -2 28 -2 0 -68 -31 -148 -68z"/>
<path d="M1390 1021 c0 -27 7 -32 118 -79 64 -28 115 -54 112 -59 -3 -4 -39
-22 -80 -39 -155 -64 -150 -61 -150 -89 0 -32 -1 -33 169 45 111 51 126 61
129 84 3 25 -4 30 -94 72 -54 25 -122 57 -151 69 l-53 24 0 -28z"/>
<path d="M3593 1440 c-18 -4 -57 -17 -87 -30 l-55 -22 19 -37 c34 -65 32 -64
85 -40 66 29 145 31 182 3 15 -12 29 -30 31 -41 3 -18 -4 -21 -67 -26 -94 -9
-187 -40 -222 -73 -59 -57 -58 -153 2 -213 54 -55 173 -56 259 -3 l51 32 6
-30 c5 -29 7 -30 64 -30 l59 0 0 173 c0 94 -5 190 -11 212 -15 54 -74 109
-132 124 -51 12 -135 13 -184 1z m182 -320 c0 -43 -2 -46 -45 -67 -61 -31
-124 -31 -145 1 -24 36 -6 70 47 90 50 18 83 24 118 22 23 -1 25 -5 25 -46z"/>
<path d="M4305 1436 c-16 -7 -44 -25 -61 -39 -18 -15 -34 -27 -37 -27 -3 0 -8
16 -11 35 l-7 35 -59 0 -60 0 0 -255 0 -255 75 0 75 0 2 177 3 178 43 23 c33
18 51 22 78 17 55 -10 64 -43 64 -235 l0 -160 71 0 70 0 -3 208 c-3 195 -4
209 -26 243 -12 20 -38 44 -56 53 -41 19 -119 20 -161 2z"/>
<path d="M5491 1438 c-56 -16 -117 -66 -147 -121 -26 -46 -29 -62 -29 -137 0
-72 4 -92 25 -130 29 -52 95 -105 148 -120 63 -17 175 -12 236 11 31 11 58 25
61 30 4 5 -4 27 -16 48 l-22 39 -41 -14 c-53 -19 -134 -19 -179 -1 -32 14 -67
58 -67 87 0 6 59 10 174 10 l174 0 6 33 c7 39 -7 125 -28 164 -48 92 -176 136
-295 101z m152 -118 c14 -11 30 -33 35 -50 l11 -30 -115 0 c-62 0 -114 2 -114
5 0 4 7 19 15 35 30 58 118 79 168 40z"/>
<path d="M4710 1385 l0 -54 103 -3 102 -3 3 -197 2 -198 70 0 70 0 0 255 0
255 -175 0 -175 0 0 -55z"/>
<path d="M4700 430 l0 -360 70 0 70 0 0 169 0 169 31 26 c44 37 112 40 142 4
15 -17 17 -43 17 -194 l0 -174 76 0 77 0 -5 193 c-4 140 -9 201 -20 227 -45
103 -162 126 -270 54 -28 -19 -51 -34 -52 -34 0 0 0 63 2 140 l4 140 -71 0
-71 0 0 -360z"/>
<path d="M3655 736 c-98 -31 -169 -98 -205 -194 -28 -75 -29 -218 -2 -290 40
-105 118 -171 226 -192 95 -18 208 12 259 67 17 19 16 21 -21 64 l-39 43 -32
-27 c-27 -22 -42 -27 -87 -27 -30 0 -68 7 -84 15 -124 64 -133 310 -15 400 46
35 114 39 171 8 l41 -21 37 44 37 44 -48 30 c-79 51 -156 62 -238 36z"/>
<path d="M4415 581 c-50 -13 -91 -38 -127 -81 -19 -22 -38 -40 -41 -40 -4 0
-7 18 -7 39 0 65 -5 71 -69 71 l-57 0 -2 -250 -2 -250 75 0 75 0 0 133 c0 134
0 134 31 176 42 59 103 85 180 78 l57 -5 15 58 14 58 -43 11 c-47 12 -55 12
-99 2z"/>
<path d="M5498 580 c-47 -8 -158 -54 -158 -65 0 -7 39 -85 43 -85 1 0 26 9 55
20 70 27 151 27 186 -1 24 -19 36 -58 19 -60 -152 -10 -273 -51 -308 -106 -28
-42 -26 -119 3 -161 34 -47 77 -66 148 -66 50 0 71 6 119 33 58 33 74 31 75
-6 0 -9 19 -13 60 -13 l60 0 0 163 c0 174 -8 224 -46 273 -45 60 -153 91 -256
74z m156 -320 c-1 -39 -5 -48 -34 -67 -83 -57 -185 -32 -166 40 8 33 34 47
111 63 87 18 90 16 89 -36z"/>
</g>
</svg>
